<svg xmlns="http://www.w3.org/2000/svg" viewBox="0 0 380 800" width="380" height="800" font-family="Segoe UI, Roboto, Helvetica, Arial, sans-serif">
  <rect x="2" y="2" width="376" height="796" fill="#05070C" rx="42" stroke="#2A3446" stroke-width="2"/>
  <rect x="12" y="12" width="356" height="776" fill="#080C18" rx="33"/>
  <g transform="translate(190,132) scale(2.6) translate(-12,-12)"><rect x="1.5" y="3" width="21" height="15" rx="3" fill="#60A5FA"/><rect x="9.5" y="6" width="5" height="9" rx="1.5" fill="#080C18"/><rect x="10.5" y="17.5" width="3" height="3" fill="#60A5FA"/><rect x="7" y="20" width="10" height="2.5" rx="1.25" fill="#60A5FA"/></g>
  <text x="190" y="216" fill="#EEF2F8" font-size="24" font-weight="600" text-anchor="middle">Portal Remote</text>
  <text x="190" y="244" fill="#9AA7BD" font-size="13.5" text-anchor="middle">Pick the PC you want to drive</text>
  <text x="26" y="290" fill="#9AA7BD" font-size="11.5">LAST USED</text>
  <rect x="24" y="302" width="332" height="86" fill="#101725" rx="14" stroke="#60A5FA" stroke-opacity="0.45"/>
  <g transform="translate(60,345)"><rect x="-14" y="-11" width="28" height="19" rx="3" fill="none" stroke="#60A5FA" stroke-width="1.8"/><path d="M-5 12h10" stroke="#60A5FA" stroke-width="1.8" stroke-linecap="round"/></g>
  <text x="94" y="336" fill="#EEF2F8" font-size="15.5" font-weight="600">Living-Room PC</text>
  <text x="94" y="358" fill="#9AA7BD" font-size="12.5">192.168.1.24:8080 · paired</text>
  <rect x="266" y="326" width="76" height="36" fill="#60A5FA" rx="18"/>
  <text x="304" y="349" fill="#080C18" font-size="13" font-weight="600" text-anchor="middle">Connect</text>
  <text x="26" y="424" fill="#9AA7BD" font-size="11.5">PCS ON THIS NETWORK</text>
  <circle cx="330" cy="420" r="8" fill="none" stroke="#60A5FA" stroke-width="2" stroke-dasharray="30 12"/>
  <rect x="24" y="436" width="332" height="72" fill="#101725" rx="14" stroke="#2A3446"/>
  <g transform="translate(60,472)"><rect x="-14" y="-11" width="28" height="19" rx="3" fill="none" stroke="#9AA7BD" stroke-width="1.8"/><path d="M-5 12h10" stroke="#9AA7BD" stroke-width="1.8" stroke-linecap="round"/></g>
  <text x="94" y="468" fill="#EEF2F8" font-size="14.5">STUDIO-DESK</text>
  <text x="94" y="488" fill="#9AA7BD" font-size="12">192.168.1.31:8080 · v1.4.0</text>
  <rect x="24" y="520" width="332" height="72" fill="#101725" rx="14" stroke="#2A3446"/>
  <g transform="translate(60,556)"><rect x="-14" y="-11" width="28" height="19" rx="3" fill="none" stroke="#9AA7BD" stroke-width="1.8"/><path d="M-5 12h10" stroke="#9AA7BD" stroke-width="1.8" stroke-linecap="round"/></g>
  <text x="94" y="552" fill="#EEF2F8" font-size="14.5">HTPC-LOUNGE</text>
  <text x="94" y="572" fill="#9AA7BD" font-size="12">192.168.1.55:8080 · v1.4.0</text>
  <text x="190" y="628" fill="#8492A8" font-size="12" text-anchor="middle">Tapping a PC asks it to allow this phone</text>
  <text x="118" y="690" fill="#60A5FA" font-size="14" font-weight="600" text-anchor="middle">Scan QR code</text>
  <text x="262" y="690" fill="#60A5FA" font-size="14" font-weight="600" text-anchor="middle">Type address</text>
  <text x="190" y="730" fill="#8492A8" font-size="11.5" text-anchor="middle">Same Wi-Fi as the PC · nothing leaves the network</text>
</svg>
